<?xml version="1.0" encoding="UTF-8" standalone="no"?>
<svg width="86px" height="17px" viewBox="0 0 86 17" version="1.1" xmlns="http://www.w3.org/2000/svg" xmlns:xlink="http://www.w3.org/1999/xlink">
    <!-- Generator: Sketch 42 (36781) - http://www.bohemiancoding.com/sketch -->
    <title>Deloitte</title>
    <desc>Created with Sketch.</desc>
    <defs></defs>
    <g id="Sep-6" stroke="none" stroke-width="1" fill="none" fill-rule="evenodd">
        <g id="3-copy" transform="translate(-310.000000, -479.000000)" fill-rule="nonzero" fill="#000000">
            <g id="Deloitte" transform="translate(310.000000, 479.000000)">
                <path d="M20.6351394,7.03331113 C22.0223499,7.03331113 22.4414917,8.33609994 22.4414917,9.05063832 L18.7027254,9.05063832 C18.7021935,8.03814782 19.3872882,7.03331113 20.6351394,7.03331113 L20.6351394,7.03331113 Z M24.6191144,13.059051 C24.2244402,13.196273 23.813277,13.3209209 23.4021137,13.4072997 C22.9196751,13.5078927 22.4196836,13.5631095 21.9122454,13.5631095 C20.2718477,13.5631095 18.9867631,13.0021941 18.7766603,11.6655099 L25.7765415,11.6655099 C25.8286683,11.4085603 25.9201561,10.7875078 25.9201561,10.1342 C25.9201561,7.09727516 24.4499683,4.30909938 20.6989681,4.30909938 C17.054881,4.30909938 15.1155522,7.24597787 15.1155522,10.536572 C15.1155522,14.3295845 17.6958276,16.4994413 21.298426,16.4994413 C22.2159636,16.4994413 22.8866969,16.4152493 23.4404109,16.2993487 C24.0148693,16.1790744 24.6483692,15.9849955 25.1834665,15.73898 L24.6191144,13.059051 L24.6191144,13.059051 Z M74.9719833,7.03331113 C76.3586619,7.03331113 76.7783356,8.33609994 76.7783356,9.05063832 L73.0395693,9.05063832 C73.0395693,8.03814782 73.7241321,7.03331113 74.9719833,7.03331113 Z M78.9559582,13.059051 C78.5612841,13.196273 78.1495889,13.3209209 77.7384257,13.4072997 C77.2554552,13.5078927 76.7565275,13.5631095 76.2485574,13.5631095 C74.6081597,13.5631095 73.3241389,13.0021941 73.1140361,11.6655099 L80.1128535,11.6655099 C80.1649803,11.4085603 80.2564681,10.7875078 80.2564681,10.1342 C80.2564681,7.09727516 78.7862803,4.30909938 75.0363439,4.30909938 C71.3917249,4.30909938 69.4523961,7.24597787 69.4523961,10.536572 C69.4523961,14.3295845 72.0321396,16.4994413 75.634738,16.4994413 C76.5522756,16.4994413 77.2230089,16.4152493 77.7767229,16.2993487 C78.3511813,16.1790744 78.9841493,15.9849955 79.5197785,15.73898 L78.9559582,13.059051 L78.9559582,13.059051 Z M27.6344887,0.441735545 L27.6344887,16.2495989 L31.4296371,16.2495989 L31.4296371,0.441735545 L27.6344887,0.441735545 Z M39.0518482,13.6062989 C37.8188904,13.6062989 37.0093296,12.3538066 37.0093296,10.4162978 C37.0093296,8.87350715 37.5524055,7.22574993 39.0651458,7.22574993 C40.5252274,7.22574993 41.0433037,8.93364428 41.0433037,10.39935 C41.0433037,12.3456061 40.2555511,13.6062989 39.0518482,13.6062989 L39.0518482,13.6062989 Z M39.0013171,16.4994413 C41.9624371,16.4994413 44.9607904,14.5827071 44.9607904,10.3014905 C44.9607904,7.75276983 43.4906026,4.32878062 39.1874842,4.32878062 C34.7561764,4.32878062 33.1402463,7.64670981 33.1402463,10.4961161 C33.1397144,14.0709948 35.5556309,16.4994413 39.0013171,16.4994413 Z M46.6102305,4.58463675 L46.6102305,16.2495989 L50.4053789,16.2495989 L50.4053789,4.58463675 L46.6102305,4.58463675 Z M46.6102305,0.447202556 L46.6102305,3.47538014 L50.4053789,3.47538014 L50.4053789,0.447202556 L46.6102305,0.447202556 Z M53.4117109,1.41103666 L53.4117109,4.58354335 L51.953225,4.58354335 L51.953225,7.47449895 L53.4117109,7.47449895 L53.4117109,12.2532136 C53.4117109,14.8817526 54.5803081,16.4896007 57.2494117,16.4896007 C57.7499351,16.4896007 58.3153511,16.4371174 58.835555,16.3567523 C59.3174617,16.2824009 59.7445821,16.1921953 59.931813,16.1298713 C59.9350044,16.1265911 59.903622,13.0831059 59.903622,13.0716252 C59.7818155,13.1148146 58.9217237,13.2635173 58.6068355,13.2635173 C58.3015215,13.2635173 57.8472739,13.2241548 57.5233432,12.88356 C57.2924961,12.640278 57.1265414,12.2444664 57.1265414,11.6009991 L57.1265414,7.47449895 L59.5802232,7.47449895 L59.5802232,4.58354335 L57.1265414,4.58354335 L57.1265414,0.980782864 L53.4117109,1.41103666 L53.4117109,1.41103666 Z M62.1924129,1.41103666 L62.1924129,4.58354335 L60.733927,4.58354335 L60.733927,7.47449895 L62.1924129,7.47449895 L62.1924129,12.2532136 C62.1924129,14.8817526 63.3620739,16.4896007 66.0311776,16.4896007 C66.5306372,16.4896007 67.0960531,16.4371174 67.6162571,16.3567523 C68.0981638,16.2824009 68.5252842,16.1921953 68.712515,16.1298713 C68.7157065,16.1265911 68.6853878,13.0831059 68.6853878,13.0716252 C68.5630495,13.1148146 67.7024258,13.2635173 67.3880694,13.2635173 C67.0827555,13.2635173 66.6295717,13.2241548 66.305641,12.88356 C66.07373,12.640278 65.9088392,12.2444664 65.9088392,11.6009991 L65.9088392,7.47449895 L68.3614572,7.47449895 L68.3614572,4.58354335 L65.9088392,4.58354335 L65.9088392,0.980782864 L62.1924129,1.41103666 L62.1924129,1.41103666 Z" id="Shape"></path>
                <path d="M81.4628306,14.3448921 C81.4631156,13.5740716 81.8634779,12.8619603 82.5131048,12.4768038 C83.1627317,12.0916472 83.9629295,12.0919598 84.6122713,12.4776238 C85.2616132,12.8632878 85.6614487,13.5757117 85.6611636,14.3465322 C85.6607229,15.5381175 84.7205369,16.5037211 83.5611992,16.5032682 C82.4018616,16.5028153 81.46239,15.5364774 81.4628306,14.3448921 Z" id="Shape"></path>
                <path d="M0.428567403,16.2670933 L4.72370728,16.2670933 C5.01465979,16.2670933 5.36624957,16.2594395 5.64177681,16.2452253 C11.5198686,15.9330589 13.9655717,12.3576335 13.9655717,8.22839981 C13.9655717,3.0708213 10.5810547,0.182052506 4.74019637,0.182052506 C3.24128563,0.182052506 1.90832953,0.234535815 0.428567403,0.36246388 L0.428567403,16.2670933 L0.428567403,16.2670933 Z M5.91943167,13.1175481 C5.73743255,13.1303665 5.55505837,13.1367485 5.37263244,13.1366826 L4.16892946,13.1366826 C4.17052518,13.1355892 4.16892946,3.42180343 4.16892946,3.42180343 C4.58541176,3.38353435 5.11359428,3.3578394 5.46731169,3.3578394 C7.67365722,3.3578394 10.0246812,4.82955886 10.0246812,8.22785311 C10.0246812,11.7737567 7.81514418,12.9568179 5.91943167,13.1175481 L5.91943167,13.1175481 Z" id="Shape"></path>
            </g>
        </g>
    </g>
</svg>