<?xml version="1.0" encoding="UTF-8" standalone="no"?>
<svg width="49px" height="59px" viewBox="0 0 49 59" version="1.1" xmlns="http://www.w3.org/2000/svg" xmlns:xlink="http://www.w3.org/1999/xlink">
    <!-- Generator: Sketch 42 (36781) - http://www.bohemiancoding.com/sketch -->
    <title>Group</title>
    <desc>Created with Sketch.</desc>
    <defs></defs>
    <g id="Sep-6" stroke="none" stroke-width="1" fill="none" fill-rule="evenodd">
        <g id="3-copy" transform="translate(-442.000000, -1410.000000)" fill-rule="nonzero" fill="#F768C2">
            <g id="Group-4" transform="translate(121.000000, 1179.000000)">
                <g id="Group-24" transform="translate(0.000000, 85.000000)">
                    <g id="Group" transform="translate(321.000000, 146.000000)">
                        <polygon id="Shape" points="36.0694444 17.5841426 39.5402778 14.2885252 36.0694444 10.9929078 35.1794872 11.9726859 37.5823718 14.2885252 35.1794872 16.6043644"></polygon>
                        <polygon id="Shape" points="28.6356838 16.6043644 26.1438034 14.2885252 28.6356838 11.9726859 27.6567308 10.9929078 24.1858974 14.2885252 27.6567308 17.5841426"></polygon>
                        <rect id="Rectangle-path" transform="translate(31.421093, 14.149783) rotate(26.301135) translate(-31.421093, -14.149783) " x="30.753608" y="7.91467547" width="1.33496918" height="12.4702145"></rect>
                        <rect id="Rectangle-path" x="4.3974359" y="15.3900709" width="5.07275641" height="1.3360611"></rect>
                        <rect id="Rectangle-path" x="13.1923077" y="15.3900709" width="1.3349359" height="1.3360611"></rect>
                        <rect id="Rectangle-path" x="10.9935897" y="15.3900709" width="1.3349359" height="1.3360611"></rect>
                        <rect id="Rectangle-path" x="4.3974359" y="18.6879433" width="2.31388889" height="1.3360611"></rect>
                        <rect id="Rectangle-path" x="7.69551282" y="18.6879433" width="2.58087607" height="1.3360611"></rect>
                        <rect id="Rectangle-path" x="12.0929487" y="18.6879433" width="9.87852564" height="1.3360611"></rect>
                        <rect id="Rectangle-path" x="29.6826923" y="36.2765957" width="2.13589744" height="1.3360611"></rect>
                        <rect id="Rectangle-path" x="18.6891026" y="36.2765957" width="9.70053419" height="1.3360611"></rect>
                        <rect id="Rectangle-path" x="4.3974359" y="36.2765957" width="13.2603632" height="1.3360611"></rect>
                        <rect id="Rectangle-path" x="9.89423077" y="45.070922" width="4.98376068" height="1.3360611"></rect>
                        <rect id="Rectangle-path" x="16.4903846" y="45.070922" width="9.70053419" height="1.3360611"></rect>
                        <rect id="Rectangle-path" x="28.5833333" y="45.070922" width="11.2134615" height="1.3360611"></rect>
                        <rect id="Rectangle-path" x="31.8814103" y="27.4822695" width="1.3349359" height="1.3360611"></rect>
                        <rect id="Rectangle-path" x="17.5897436" y="27.4822695" width="13.0823718" height="1.3360611"></rect>
                        <rect id="Rectangle-path" x="9.89423077" y="27.4822695" width="5.16175214" height="1.3360611"></rect>
                        <rect id="Rectangle-path" x="35.1794872" y="27.4822695" width="4.62777778" height="1.3360611"></rect>
                        <rect id="Rectangle-path" x="9.89423077" y="23.0851064" width="6.76367521" height="1.3360611"></rect>
                        <rect id="Rectangle-path" x="29.6826923" y="23.0851064" width="9.52254274" height="1.3360611"></rect>
                        <rect id="Rectangle-path" x="21.9871795" y="23.0851064" width="1.3349359" height="1.3360611"></rect>
                        <rect id="Rectangle-path" x="27.4839744" y="23.0851064" width="1.3349359" height="1.3360611"></rect>
                        <rect id="Rectangle-path" x="18.6891026" y="23.0851064" width="1.3349359" height="1.3360611"></rect>
                        <rect id="Rectangle-path" x="24.1858974" y="23.0851064" width="1.3349359" height="1.3360611"></rect>
                        <rect id="Rectangle-path" x="30.7820513" y="40.6737589" width="3.91581197" height="1.3360611"></rect>
                        <rect id="Rectangle-path" x="36.2788462" y="40.6737589" width="2.66987179" height="1.3360611"></rect>
                        <rect id="Rectangle-path" x="9.89423077" y="40.6737589" width="10.9464744" height="1.3360611"></rect>
                        <rect id="Rectangle-path" x="25.2852564" y="40.6737589" width="1.3349359" height="1.3360611"></rect>
                        <rect id="Rectangle-path" x="28.5833333" y="40.6737589" width="1.3349359" height="1.3360611"></rect>
                        <rect id="Rectangle-path" x="23.0865385" y="40.6737589" width="1.3349359" height="1.3360611"></rect>
                        <rect id="Rectangle-path" x="10.9935897" y="31.8794326" width="10.0565171" height="1.3360611"></rect>
                        <rect id="Rectangle-path" x="21.9871795" y="31.8794326" width="5.51773504" height="1.3360611"></rect>
                        <rect id="Rectangle-path" x="6.59615385" y="31.8794326" width="1.3349359" height="1.3360611"></rect>
                        <rect id="Rectangle-path" x="4.3974359" y="31.8794326" width="1.3349359" height="1.3360611"></rect>
                        <path d="M48.5916667,0 L6.0517094,0 L6.0517094,4.98796145 L0,4.98796145 L0,49.5233315 L8.81057692,58.3413348 L43.6969017,58.3413348 L43.6969017,52.9080196 L48.6806624,52.9080196 L48.6806624,0 L48.5916667,0 Z M8.36559829,56.1145663 L2.22489316,49.9686852 L8.36559829,49.9686852 L8.36559829,56.1145663 Z M42.3619658,57.0052737 L9.70053419,57.0052737 L9.70053419,48.5435534 L1.3349359,48.5435534 L1.3349359,6.32402255 L42.3619658,6.32402255 L42.3619658,57.0052737 L42.3619658,57.0052737 Z M47.2567308,51.6610293 L43.607906,51.6610293 L43.607906,4.98796145 L7.3866453,4.98796145 L7.3866453,1.3360611 L47.3457265,1.3360611 L47.3457265,51.6610293 L47.2567308,51.6610293 Z" id="Shape"></path>
                    </g>
                </g>
            </g>
        </g>
    </g>
</svg>