<?xml version="1.0" encoding="UTF-8" standalone="no"?>
<svg width="59px" height="54px" viewBox="0 0 59 54" version="1.1" xmlns="http://www.w3.org/2000/svg" xmlns:xlink="http://www.w3.org/1999/xlink">
    <!-- Generator: Sketch 42 (36781) - http://www.bohemiancoding.com/sketch -->
    <title>Group</title>
    <desc>Created with Sketch.</desc>
    <defs></defs>
    <g id="Sep-6" stroke="none" stroke-width="1" fill="none" fill-rule="evenodd">
        <g id="3-copy" transform="translate(-141.000000, -1267.000000)" fill-rule="nonzero" fill="#F768C2">
            <g id="Group-4" transform="translate(121.000000, 1179.000000)">
                <g id="Group-24" transform="translate(0.000000, 85.000000)">
                    <g id="Group" transform="translate(20.000000, 3.000000)">
                        <path d="M43.9638889,20.575341 C46.3667735,20.575341 48.3246795,18.6157847 48.3246795,16.2108747 C48.3246795,13.8059647 46.3667735,11.8464084 43.9638889,11.8464084 C41.5610043,11.8464084 39.6030983,13.8059647 39.6030983,16.2108747 C39.692094,18.6157847 41.65,20.575341 43.9638889,20.575341 Z M43.9638889,13.1824695 C45.6548077,13.1824695 46.9897436,14.5185306 46.9897436,16.2108747 C46.9897436,17.9032188 45.6548077,19.2392799 43.9638889,19.2392799 C42.2729701,19.2392799 40.9380342,17.9032188 40.9380342,16.2108747 C41.0270299,14.5185306 42.3619658,13.1824695 43.9638889,13.1824695 Z" id="Shape"></path>
                        <path d="M53.1304487,25.8305146 C53.1304487,25.1179487 52.8634615,24.3163121 52.4184829,23.6037461 C51.9735043,22.8021095 51.2615385,22.1786143 50.3715812,21.9114021 L47.167735,20.7534825 L44.3198718,25.8305146 L43.607906,25.8305146 L40.9380342,20.7534825 L37.734188,21.9114021 C36.8442308,22.267685 36.132265,22.8021095 35.6872863,23.6037461 C35.2423077,24.3163121 35.0643162,25.1179487 34.9753205,25.8305146 C34.8863248,26.1867976 34.6193376,28.2354246 34.5303419,30.8184761 L34.5303419,31.531042 L53.5754274,31.531042 L53.5754274,30.8184761 C53.3974359,28.2354246 53.1304487,26.1867976 53.1304487,25.8305146 Z M35.8652778,30.1949809 C35.9542735,27.8791417 36.2212607,26.0086561 36.2212607,26.0086561 L36.2212607,25.9195854 C36.2212607,25.2960902 36.4882479,24.672595 36.755235,24.3163121 C37.0222222,23.7818876 37.5561966,23.4256047 38.0901709,23.1583924 L40.2260684,22.3567558 L42.8069444,27.1665757 L45.1208333,27.1665757 L47.7017094,22.3567558 L49.8376068,23.1583924 C50.4605769,23.3365339 50.9055556,23.7818876 51.1725427,24.3163121 C51.4395299,24.672595 51.7065171,25.2960902 51.7065171,25.9195854 L51.7065171,26.0086561 C51.7065171,26.0086561 51.9735043,27.8791417 52.0625,30.1949809 L35.8652778,30.1949809 L35.8652778,30.1949809 Z" id="Shape"></path>
                        <path d="M31.3264957,11.7573377 L5.16175214,11.7573377 L5.16175214,31.531042 L31.3264957,31.531042 L31.3264957,11.7573377 L31.3264957,11.7573377 Z M17.0871795,21.6441899 L6.49668803,29.482415 L6.49668803,13.8059647 L17.0871795,21.6441899 Z M7.83162393,13.0933988 L28.6566239,13.0933988 L18.2441239,20.8425532 L7.83162393,13.0933988 Z M18.2441239,22.4458265 L28.6566239,30.1949809 L7.83162393,30.1949809 L18.2441239,22.4458265 Z M19.3120726,21.6441899 L29.9025641,13.8059647 L29.9025641,29.5714857 L19.3120726,21.6441899 Z" id="Shape"></path>
                        <path d="M55.7113248,0.623495181 L3.91581197,0.623495181 C2.13589744,0.623495181 0.622970085,2.04862702 0.622970085,3.83004183 L0.622970085,53.6205856 L58.9151709,53.6205856 L58.9151709,3.91911257 C59.0041667,2.13769776 57.4912393,0.623495181 55.7113248,0.623495181 Z M3.91581197,1.95955628 L55.7113248,1.95955628 C56.7792735,1.95955628 57.580235,2.85026368 57.580235,3.91911257 L57.580235,7.57101291 L2.04690171,7.57101291 L2.04690171,3.91911257 C2.04690171,2.85026368 2.84786325,1.95955628 3.91581197,1.95955628 Z M2.04690171,52.3735952 L2.04690171,8.81800327 L57.6692308,8.81800327 L57.6692308,52.2845245 L2.04690171,52.2845245 L2.04690171,52.3735952 Z" id="Shape"></path>
                        <rect id="Rectangle-path" x="44.7648504" y="4.09725405" width="1.3349359" height="1.3360611"></rect>
                        <rect id="Rectangle-path" x="48.146688" y="4.09725405" width="1.3349359" height="1.3360611"></rect>
                        <rect id="Rectangle-path" x="51.5285256" y="4.09725405" width="1.3349359" height="1.3360611"></rect>
                        <rect id="Rectangle-path" x="6.31869658" y="4.09725405" width="34.2633547" height="1.3360611"></rect>
                        <path d="M5.16175214,49.34519 L19.846047,49.34519 L19.846047,34.8266594 L5.16175214,34.8266594 L5.16175214,49.34519 Z M6.49668803,36.1627205 L18.5111111,36.1627205 L18.5111111,48.0091289 L6.49668803,48.0091289 L6.49668803,36.1627205 Z" id="Shape"></path>
                        <path d="M21.9819444,49.34519 L36.6662393,49.34519 L36.6662393,34.8266594 L21.9819444,34.8266594 L21.9819444,49.34519 Z M23.3168803,36.1627205 L35.3313034,36.1627205 L35.3313034,48.0091289 L23.3168803,48.0091289 L23.3168803,36.1627205 Z" id="Shape"></path>
                        <path d="M38.8911325,49.34519 L53.5754274,49.34519 L53.5754274,34.8266594 L38.8911325,34.8266594 L38.8911325,49.34519 Z M40.2260684,36.1627205 L52.2404915,36.1627205 L52.2404915,48.0091289 L40.2260684,48.0091289 L40.2260684,36.1627205 Z" id="Shape"></path>
                    </g>
                </g>
            </g>
        </g>
    </g>
</svg>