<?xml version="1.0" encoding="UTF-8" standalone="no"?>
<svg width="152px" height="31px" viewBox="0 0 152 31" version="1.1" xmlns="http://www.w3.org/2000/svg" xmlns:xlink="http://www.w3.org/1999/xlink">
    <!-- Generator: Sketch 42 (36781) - http://www.bohemiancoding.com/sketch -->
    <title>Group</title>
    <desc>Created with Sketch.</desc>
    <defs></defs>
    <g id="Sep-6" stroke="none" stroke-width="1" fill="none" fill-rule="evenodd">
        <g id="3-copy" transform="translate(-30.000000, -32.000000)" fill="#9F9E9E">
            <g id="Group" transform="translate(30.000000, 32.000000)">
                <path d="M58.114707,8.60254042 L58.114707,14.2356319 L51.7812657,14.2356319 L51.7812657,8.60254042 L48.8651489,8.60254042 L48.8651489,22.7776148 L51.7812657,22.7776148 L51.7812657,16.8213132 L58.114707,16.8213132 L58.114707,22.7776148 L61.0308238,22.7776148 L61.0308238,8.60254042 L58.114707,8.60254042 Z M72.6269447,12.457976 L69.7791743,12.457976 L69.7791743,19.014525 C69.5741349,19.9148962 68.8223235,20.4458843 67.9566013,20.4458843 C66.8402753,20.4458843 66.3162856,19.7071182 66.3162856,18.6220555 L66.3162856,12.457976 L63.4912974,12.457976 L63.4912974,19.1992165 C63.4912974,21.4847741 64.7898807,23.0084792 67.068097,23.0084792 C68.2527694,23.0084792 69.2324024,22.477491 69.8019565,21.8310707 L69.8019565,22.7776148 L72.6269447,22.7776148 L72.6269447,12.457976 Z M74.4039534,19.7071182 C74.7001215,21.8079843 76.4543481,23.0084792 78.9376038,23.0084792 C81.3069487,23.0084792 83.1067396,21.7618114 83.1067396,19.6609453 C83.1067396,18.0910674 82.1726709,17.0983505 80.3956622,16.6597081 L78.2997032,16.1748928 C77.6618027,16.0132878 77.3884167,15.7824234 77.3884167,15.3668674 C77.3884167,14.7204471 78.0490994,14.3972369 78.7325643,14.3972369 C79.666633,14.3972369 80.1450584,14.8358793 80.3273157,15.4130403 L83.0156109,15.4130403 C82.6738785,13.4737793 81.2613844,12.2271116 78.687,12.2271116 C76.4087837,12.2271116 74.631775,13.5661251 74.631775,15.5746454 C74.631775,17.3061284 75.7253188,18.1141538 77.2745059,18.4835369 L79.3249006,18.9452657 C80.0311476,19.1299572 80.3500979,19.3608216 80.3500979,19.8225504 C80.3500979,20.4920572 79.7805438,20.8383538 78.9148216,20.8383538 C78.0718816,20.8383538 77.4339811,20.4458843 77.2061594,19.7071182 L74.4039534,19.7071182 Z M85.6355597,19.6609453 C85.6355597,21.9465029 86.934143,22.9853927 89.0073198,22.9853927 C89.7591311,22.9853927 90.442596,22.8699605 90.8298928,22.6621826 L90.8298928,20.1226741 C90.5109425,20.3304521 90.0325171,20.4689707 89.599656,20.4689707 C88.8706268,20.4689707 88.4377657,20.0995877 88.4377657,19.2915623 L88.4377657,14.76662 L90.6704177,14.76662 L90.6704177,12.457976 L88.4377657,12.457976 L88.4377657,9.66451668 L85.6355597,9.66451668 L85.6355597,12.457976 L84.0863726,12.457976 L84.0863726,14.76662 L85.6355597,14.76662 L85.6355597,19.6609453 Z M95.7052756,7.77142857 L92.8802875,7.77142857 L92.8802875,22.7776148 L95.7052756,22.7776148 L95.7052756,7.77142857 Z M104.362498,19.4069945 L106.982446,19.4069945 C106.617932,21.6002063 105.02318,23.0084792 102.471578,23.0084792 C99.5098968,23.0084792 97.5278487,20.8152673 97.5278487,17.6293386 C97.5278487,14.5126691 99.5782433,12.2271116 102.426014,12.2271116 C105.410477,12.2271116 107.050793,14.3279776 107.050793,17.3523013 L107.050793,18.229586 L100.261708,18.229586 C100.352837,19.7763775 101.218559,20.6998351 102.471578,20.6998351 C103.428429,20.6998351 104.134676,20.2842792 104.362498,19.4069945 Z M102.448796,14.558842 C101.355252,14.558842 100.580658,15.2283488 100.330055,16.498103 L104.271369,16.498103 C104.248587,15.4130403 103.610686,14.558842 102.448796,14.558842 Z M108.28103,15.6900776 C108.28103,20.0303284 111.060453,23.0084792 114.796728,23.0084792 C118.100142,23.0084792 120.127754,21.0461317 120.651744,18.1834132 L117.758409,18.1834132 C117.279984,19.4993402 116.414262,20.376625 114.796728,20.376625 C112.564076,20.376625 111.242711,18.3681047 111.242711,15.6900776 C111.242711,12.9889641 112.564076,11.0035302 114.796728,11.0035302 C116.414262,11.0035302 117.279984,11.8808149 117.758409,13.1736556 L120.651744,13.1736556 C120.127754,10.3340234 118.100142,8.37167602 114.796728,8.37167602 C111.060453,8.37167602 108.28103,11.3498268 108.28103,15.6900776 Z M130.858153,22.7776148 L128.147076,22.7776148 L128.147076,22.2235402 C127.805343,22.5698368 126.780146,22.9623063 125.66382,22.9623063 C123.613425,22.9623063 121.881981,21.7618114 121.881981,19.6147724 C121.881981,17.652425 123.613425,16.3134115 125.823295,16.3134115 C126.711799,16.3134115 127.736997,16.6135352 128.147076,16.9136589 L128.147076,16.1518064 C128.147076,15.2745217 127.623086,14.558842 126.483978,14.558842 C125.686602,14.558842 125.208177,14.9282251 124.980355,15.5284725 L122.29206,15.5284725 C122.588228,13.6584708 124.251326,12.2271116 126.575106,12.2271116 C129.286184,12.2271116 130.858153,13.7277302 130.858153,16.1979793 L130.858153,22.7776148 Z M128.147076,19.9610691 L128.147076,19.222303 C127.896472,18.6682284 127.121878,18.3219318 126.30172,18.3219318 C125.413216,18.3219318 124.501929,18.7144013 124.501929,19.591686 C124.501929,20.4920572 125.413216,20.8614402 126.30172,20.8614402 C127.121878,20.8614402 127.896472,20.5151436 128.147076,19.9610691 Z M132.498469,19.7071182 C132.794637,21.8079843 134.548863,23.0084792 137.032119,23.0084792 C139.401464,23.0084792 141.201255,21.7618114 141.201255,19.6609453 C141.201255,18.0910674 140.267186,17.0983505 138.490177,16.6597081 L136.394218,16.1748928 C135.756318,16.0132878 135.482932,15.7824234 135.482932,15.3668674 C135.482932,14.7204471 136.143615,14.3972369 136.82708,14.3972369 C137.761148,14.3972369 138.239574,14.8358793 138.421831,15.4130403 L141.110126,15.4130403 C140.768394,13.4737793 139.3559,12.2271116 136.781515,12.2271116 C134.503299,12.2271116 132.72629,13.5661251 132.72629,15.5746454 C132.72629,17.3061284 133.819834,18.1141538 135.369021,18.4835369 L137.419416,18.9452657 C138.125663,19.1299572 138.444613,19.3608216 138.444613,19.8225504 C138.444613,20.4920572 137.875059,20.8383538 137.009337,20.8383538 C136.166397,20.8383538 135.528496,20.4458843 135.300675,19.7071182 L132.498469,19.7071182 Z M149.311705,19.4069945 L151.931654,19.4069945 C151.567139,21.6002063 149.972388,23.0084792 147.420785,23.0084792 C144.459104,23.0084792 142.477056,20.8152673 142.477056,17.6293386 C142.477056,14.5126691 144.527451,12.2271116 147.375221,12.2271116 C150.359684,12.2271116 152,14.3279776 152,17.3523013 L152,18.229586 L145.210915,18.229586 C145.302044,19.7763775 146.167766,20.6998351 147.420785,20.6998351 C148.377636,20.6998351 149.083883,20.2842792 149.311705,19.4069945 Z M147.398003,14.558842 C146.304459,14.558842 145.529866,15.2283488 145.279262,16.498103 L149.220576,16.498103 C149.197794,15.4130403 148.559893,14.558842 147.398003,14.558842 Z" id="HustleCase-Copy"></path>
                <g id="Group-4" opacity="0.699999988">
                    <path d="M12.0761541,20.7360439 C10.6989003,19.4604513 10.0102837,17.5470911 10.0102837,14.995906 L10.0102837,-1.21154231 C10.0102837,-3.76272748 10.6989003,-5.67608765 12.0761541,-6.95168024 C13.4534079,-8.22727282 15.4304039,-8.86505955 18.0072014,-8.86505955 L23.4273345,-8.86505955 L23.4273345,-5.44348714 L17.5629282,-5.44348714 C16.4670488,-5.44348714 15.5785113,-5.11333871 14.897289,-4.45303196 C14.2160666,-3.79272521 13.8754606,-2.99736765 13.8754606,-2.06693541 L13.8754606,15.8512991 C13.8754606,16.7817313 14.2160666,17.5770889 14.897289,18.2373956 C15.5785113,18.8977024 16.4670488,19.2278508 17.5629282,19.2278508 L23.4273345,19.2278508 L23.4273345,22.6494232 L18.0072014,22.6494232 C15.4304039,22.6494232 13.4534079,22.0116365 12.0761541,20.7360439 Z" id="C-Copy-7" transform="translate(16.718809, 6.892182) rotate(-90.000000) translate(-16.718809, -6.892182) "></path>
                    <path d="M12.0761541,38.1072729 C10.6989003,36.8316803 10.0102837,34.9183202 10.0102837,32.367135 L10.0102837,16.1596867 C10.0102837,13.6085016 10.6989003,11.6951414 12.0761541,10.4195488 C13.4534079,9.14395621 15.4304039,8.50616948 18.0072014,8.50616948 L23.4273345,8.50616948 L23.4273345,11.9277419 L17.5629282,11.9277419 C16.4670488,11.9277419 15.5785113,12.2578903 14.897289,12.9181971 C14.2160666,13.5785038 13.8754606,14.3738614 13.8754606,15.3042936 L13.8754606,33.2225281 C13.8754606,34.1529603 14.2160666,34.9483179 14.897289,35.6086247 C15.5785113,36.2689314 16.4670488,36.5990798 17.5629282,36.5990798 L23.4273345,36.5990798 L23.4273345,40.0206522 L18.0072014,40.0206522 C15.4304039,40.0206522 13.4534079,39.3828655 12.0761541,38.1072729 Z" id="C-Copy-8" transform="translate(16.718809, 24.263411) scale(1, -1) rotate(-90.000000) translate(-16.718809, -24.263411) "></path>
                </g>
            </g>
        </g>
    </g>
</svg>