<?xml version="1.0" encoding="UTF-8" standalone="no"?>
<svg width="56px" height="59px" viewBox="0 0 56 59" version="1.1" xmlns="http://www.w3.org/2000/svg" xmlns:xlink="http://www.w3.org/1999/xlink">
    <!-- Generator: Sketch 42 (36781) - http://www.bohemiancoding.com/sketch -->
    <title>noun_995598_cc</title>
    <desc>Created with Sketch.</desc>
    <defs></defs>
    <g id="Sep-6" stroke="none" stroke-width="1" fill="none" fill-rule="evenodd">
        <g id="3-copy" transform="translate(-439.000000, -1265.000000)" fill-rule="nonzero" fill="#F768C2">
            <g id="Group-4" transform="translate(121.000000, 1179.000000)">
                <g id="Group-24" transform="translate(0.000000, 85.000000)">
                    <g id="noun_995598_cc" transform="translate(318.000000, 1.000000)">
                        <g id="Group">
                            <path d="M55.1773504,40.794399 L55.1773504,31.0856883 L49.2146368,31.0856883 L49.2146368,22.623968 L33.4623932,22.623968 L28.2116453,17.3687943 L28.2116453,10.0649936 L38.1791667,10.0649936 L38.1791667,0 L16.9981838,0 L16.9981838,10.0649936 L26.9657051,10.0649936 L26.9657051,17.4578651 L21.7149573,22.7130387 L5.96271368,22.7130387 L5.96271368,31.174759 L0,31.174759 L0,40.8834697 L5.96271368,40.8834697 L5.96271368,48.7216949 L0,48.7216949 L0,58.4304055 L13.2603632,58.4304055 L13.2603632,48.6326241 L7.29764957,48.6326241 L7.29764957,40.794399 L13.2603632,40.794399 L13.2603632,31.0856883 L7.29764957,31.0856883 L7.29764957,23.9600291 L21.7149573,23.9600291 L26.9657051,29.2152028 L26.9657051,48.6326241 L25.8977564,48.6326241 C23.2278846,48.6326241 21.0029915,50.8593926 21.0029915,53.5315148 C21.0029915,56.203637 23.2278846,58.4304055 25.8977564,58.4304055 L29.4575855,58.4304055 C32.1274573,58.4304055 34.3523504,56.203637 34.3523504,53.5315148 C34.3523504,50.8593926 32.1274573,48.6326241 29.4575855,48.6326241 L28.3896368,48.6326241 L28.3896368,29.2152028 L33.6403846,23.9600291 L48.0576923,23.9600291 L48.0576923,31.0856883 L42.0949786,31.0856883 L42.0949786,40.794399 L48.0576923,40.794399 L48.0576923,48.6326241 L42.0949786,48.6326241 L42.0949786,58.3413348 L55.3553419,58.3413348 L55.3553419,48.6326241 L49.3926282,48.6326241 L49.3926282,40.794399 L55.1773504,40.794399 Z M18.3331197,1.3360611 L36.9332265,1.3360611 L36.9332265,8.63986179 L18.3331197,8.63986179 L18.3331197,1.3360611 Z M11.9254274,57.0052737 L1.3349359,57.0052737 L1.3349359,49.9686852 L11.9254274,49.9686852 L11.9254274,57.0052737 Z M11.9254274,39.4583379 L1.3349359,39.4583379 L1.3349359,32.4217494 L11.9254274,32.4217494 L11.9254274,39.4583379 Z M32.9284188,53.5315148 C32.9284188,55.4910711 31.3264957,57.0943444 29.3685897,57.0943444 L25.8087607,57.0943444 C23.8508547,57.0943444 22.2489316,55.4910711 22.2489316,53.5315148 C22.2489316,51.5719585 23.8508547,49.9686852 25.8087607,49.9686852 L29.3685897,49.9686852 C31.3264957,49.9686852 32.9284188,51.5719585 32.9284188,53.5315148 Z M27.5886752,27.9682124 L22.8719017,23.2474632 L27.5886752,18.5267139 L32.3054487,23.2474632 L27.5886752,27.9682124 Z M53.8424145,57.0052737 L43.2519231,57.0052737 L43.2519231,49.9686852 L53.8424145,49.9686852 L53.8424145,57.0052737 Z M43.2519231,32.4217494 L53.8424145,32.4217494 L53.8424145,39.4583379 L43.2519231,39.4583379 L43.2519231,32.4217494 Z" id="Shape"></path>
                        </g>
                    </g>
                </g>
            </g>
        </g>
    </g>
</svg>