<?xml version="1.0" encoding="UTF-8" standalone="no"?>
<svg width="50px" height="59px" viewBox="0 0 50 59" version="1.1" xmlns="http://www.w3.org/2000/svg" xmlns:xlink="http://www.w3.org/1999/xlink">
    <!-- Generator: Sketch 42 (36781) - http://www.bohemiancoding.com/sketch -->
    <title>noun_995623_cc</title>
    <desc>Created with Sketch.</desc>
    <defs></defs>
    <g id="Sep-6" stroke="none" stroke-width="1" fill="none" fill-rule="evenodd">
        <g id="3-copy" transform="translate(-145.000000, -1410.000000)" fill-rule="nonzero" fill="#F768C2">
            <g id="Group-4" transform="translate(121.000000, 1179.000000)">
                <g id="Group-24" transform="translate(0.000000, 85.000000)">
                    <g id="noun_995623_cc" transform="translate(24.000000, 146.000000)">
                        <g id="Group">
                            <g>
                                <path d="M46.2777778,0 L3.38183761,0 C1.51292735,0 0,1.51420258 0,3.38468813 L0,55.0457174 C0,56.9162029 1.51292735,58.4304055 3.38183761,58.4304055 L46.1887821,58.4304055 C48.0576923,58.4304055 49.5706197,56.9162029 49.5706197,55.0457174 L49.5706197,3.38468813 C49.5706197,1.51420258 48.0576923,0 46.2777778,0 Z M48.2356838,55.0457174 C48.2356838,56.1145663 47.3457265,57.0943444 46.1887821,57.0943444 L3.38183761,57.0943444 C2.31388889,57.0943444 1.3349359,56.203637 1.3349359,55.0457174 L1.3349359,3.38468813 C1.3349359,2.31583924 2.22489316,1.3360611 3.38183761,1.3360611 L46.1887821,1.3360611 C47.2567308,1.3360611 48.2356838,2.2267685 48.2356838,3.38468813 L48.2356838,55.0457174 Z" id="Shape"></path>
                                <rect id="Rectangle-path" x="19.7884615" y="7.69503546" width="23.761859" height="1.3360611"></rect>
                                <rect id="Rectangle-path" x="19.7884615" y="10.9929078" width="18.6001068" height="1.3360611"></rect>
                                <polygon id="Shape" points="10.7527778 10.8125114 9.77382479 9.83273322 8.79487179 10.8125114 10.7527778 12.6829969 14.8465812 8.58574286 13.8676282 7.69503546"></polygon>
                                <path d="M11.0145299,4.39716312 C7.98867521,4.39716312 5.49679487,6.89114384 5.49679487,9.91954901 C5.49679487,12.9479542 7.98867521,15.4419349 11.0145299,15.4419349 C14.0403846,15.4419349 16.532265,12.9479542 16.532265,9.91954901 C16.532265,6.89114384 14.0403846,4.39716312 11.0145299,4.39716312 Z M11.0145299,14.0168031 C8.70064103,14.0168031 6.83173077,12.1463175 6.83173077,9.83047827 C6.83173077,7.51463903 8.70064103,5.64415348 11.0145299,5.64415348 C13.3284188,5.64415348 15.1973291,7.51463903 15.1973291,9.83047827 C15.1973291,12.1463175 13.3284188,14.0168031 11.0145299,14.0168031 Z" id="Shape"></path>
                                <rect id="Rectangle-path" x="19.7884615" y="19.787234" width="23.761859" height="1.3360611"></rect>
                                <rect id="Rectangle-path" x="19.7884615" y="23.0851064" width="18.6001068" height="1.3360611"></rect>
                                <polygon id="Shape" points="10.7527778 22.9937807 9.77382479 22.0140025 8.79487179 22.9937807 10.7527778 24.8642662 14.8465812 20.7670122 13.8676282 19.787234"></polygon>
                                <path d="M11.0145299,16.4893617 C7.98867521,16.4893617 5.49679487,18.9833424 5.49679487,22.0117476 C5.49679487,25.0401528 7.98867521,27.5341335 11.0145299,27.5341335 C14.0403846,27.5341335 16.532265,25.0401528 16.532265,22.0117476 C16.532265,18.9833424 14.0403846,16.4893617 11.0145299,16.4893617 Z M11.0145299,26.1980724 C8.70064103,26.1980724 6.83173077,24.3275868 6.83173077,22.0117476 C6.83173077,19.6959083 8.70064103,17.8254228 11.0145299,17.8254228 C13.3284188,17.8254228 15.1973291,19.6959083 15.1973291,22.0117476 C15.1973291,24.3275868 13.3284188,26.1980724 11.0145299,26.1980724 Z" id="Shape"></path>
                                <rect id="Rectangle-path" x="19.7884615" y="46.1702128" width="23.761859" height="1.3360611"></rect>
                                <rect id="Rectangle-path" x="19.7884615" y="49.4680851" width="18.6001068" height="1.3360611"></rect>
                                <polygon id="Shape" points="10.7527778 49.2876887 9.77382479 48.3969813 8.79487179 49.2876887 10.7527778 51.247245 14.8465812 47.0609202 13.8676282 46.1702128"></polygon>
                                <path d="M11.0145299,42.8723404 C7.98867521,42.8723404 5.49679487,45.3663211 5.49679487,48.3947263 C5.49679487,51.4231315 7.98867521,53.9171122 11.0145299,53.9171122 C14.0403846,53.9171122 16.532265,51.4231315 16.532265,48.3947263 C16.532265,45.3663211 14.0403846,42.8723404 11.0145299,42.8723404 Z M11.0145299,52.4919804 C8.70064103,52.4919804 6.83173077,50.6214948 6.83173077,48.3056556 C6.83173077,45.9898163 8.70064103,44.1193308 11.0145299,44.1193308 C13.3284188,44.1193308 15.1973291,45.9898163 15.1973291,48.3056556 C15.1973291,50.6214948 13.3284188,52.4919804 11.0145299,52.4919804 Z" id="Shape"></path>
                                <rect id="Rectangle-path" x="19.7884615" y="32.9787234" width="23.761859" height="1.3360611"></rect>
                                <rect id="Rectangle-path" x="19.7884615" y="36.2765957" width="18.6001068" height="1.3360611"></rect>
                                <path d="M11.0145299,29.6808511 C7.98867521,29.6808511 5.49679487,32.1748318 5.49679487,35.203237 C5.49679487,38.2316421 7.98867521,40.7256228 11.0145299,40.7256228 C14.0403846,40.7256228 16.532265,38.2316421 16.532265,35.203237 C16.532265,32.1748318 14.0403846,29.6808511 11.0145299,29.6808511 Z M11.0145299,39.3895617 C8.70064103,39.3895617 6.83173077,37.5190762 6.83173077,35.203237 C6.83173077,32.8873977 8.70064103,31.0169122 11.0145299,31.0169122 C13.3284188,31.0169122 15.1973291,32.8873977 15.1973291,35.203237 C15.1973291,37.5190762 13.3284188,39.3895617 11.0145299,39.3895617 Z" id="Shape"></path>
                                <polygon id="Shape" points="12.5326923 32.9787234 11.1087607 34.3147845 9.77382479 32.9787234 8.79487179 33.8694308 10.2188034 35.2945626 8.79487179 36.6306237 9.77382479 37.6104019 11.1087607 36.18527 12.5326923 37.6104019 13.4226496 36.6306237 12.0877137 35.2945626 13.4226496 33.8694308"></polygon>
                            </g>
                        </g>
                    </g>
                </g>
            </g>
        </g>
    </g>
</svg>