<?xml version="1.0" encoding="UTF-8" standalone="no"?>
<svg width="59px" height="24px" viewBox="0 0 59 24" version="1.1" xmlns="http://www.w3.org/2000/svg" xmlns:xlink="http://www.w3.org/1999/xlink">
    <!-- Generator: Sketch 42 (36781) - http://www.bohemiancoding.com/sketch -->
    <title>IBM</title>
    <desc>Created with Sketch.</desc>
    <defs>
        <polygon id="path-1" points="0 23.2900943 58.1830778 23.2900943 58.1830778 0.11615566 0 0.11615566"></polygon>
    </defs>
    <g id="Sep-6" stroke="none" stroke-width="1" fill="none" fill-rule="evenodd">
        <g id="3-copy" transform="translate(-222.000000, -475.000000)">
            <g id="IBM" transform="translate(222.000000, 475.000000)">
                <polygon id="Fill-1" fill="#000000" points="54.9342276 7.93832547 54.9342276 6.31391509 46.7785672 6.31391509 46.2150354 7.93832547"></polygon>
                <polygon id="Fill-2" fill="#000000" points="32.3239976 23.3213443 40.4133255 23.3213443 40.4133255 21.7299528 32.3239976 21.7299528"></polygon>
                <polygon id="Fill-3" fill="#000000" points="32.3239976 20.2712264 40.4133255 20.2712264 40.4133255 18.6466686 32.3239976 18.6466686"></polygon>
                <polygon id="Fill-4" fill="#000000" points="44.258977 7.93832547 43.6954452 6.31391509 35.5729511 6.31391509 35.5729511 7.93832547"></polygon>
                <polygon id="Fill-5" fill="#000000" points="35.5731132 14.1049528 40.4133255 14.1049528 40.4133255 12.480395 35.5731132 12.480395"></polygon>
                <polygon id="Fill-6" fill="#000000" points="40.4131928 11.021536 40.4131928 9.72864092 40.4465065 9.72864092 40.9103921 11.021536 49.5632518 11.021536 50.0605985 9.72864092 50.0939121 9.72864092 50.0939121 11.021536 54.9342718 11.021536 54.9342718 9.39697818 45.7175855 9.39697818 45.2535525 10.6236881 45.2202388 10.6236881 44.7563532 9.39697818 35.5729805 9.39697818 35.5729805 11.021536"></polygon>
                <polygon id="Fill-7" fill="#000000" points="35.5731132 17.1879422 40.4133255 17.1879422 40.4133255 15.5635318 35.5731132 15.5635318"></polygon>
                <polygon id="Fill-8" fill="#000000" points="48.5025059 14.1048939 49.0660377 12.4803361 41.4077241 12.4803361 41.9714033 14.1048939"></polygon>
                <polygon id="Fill-9" fill="#000000" points="47.4415831 17.1878833 48.005115 15.5634729 42.4687058 15.5634729 43.0322376 17.1878833"></polygon>
                <polygon id="Fill-10" fill="#000000" points="46.3475678 20.2711675 46.9110996 18.6466097 43.5296138 18.6466097 44.093293 20.2711675"></polygon>
                <polygon id="Fill-11" fill="#000000" points="44.5904629 21.7300265 45.1539947 23.321418 45.3529923 23.321418 45.8833579 21.7300265"></polygon>
                <polygon id="Fill-12" fill="#000000" points="32.3238797 3.2307046 32.3238797 4.85511498 43.1981427 4.85511498 42.6344634 3.2307046"></polygon>
                <polygon id="Fill-13" fill="#000000" points="32.3239829 0.14740566 32.3239829 1.77181604 42.1370725 1.77181604 41.5735407 0.14740566"></polygon>
                <g id="Group-47" transform="translate(0.000000, 0.031250)">
                    <path d="M12.9295991,3.1994546 L12.9295991,4.82386498 L30.8653302,4.82386498 C30.765684,4.22716686 30.2683373,3.1994546 30.2683373,3.1994546 L12.9295991,3.1994546 Z" id="Fill-14" fill="#000000"></path>
                    <path d="M30.7326356,7.90707547 C30.7326356,7.90707547 31.0309847,6.81317807 31.0309847,6.28266509 L25.8591097,6.28266509 L25.8591097,7.90707547 L30.7326356,7.90707547 Z" id="Fill-16" fill="#000000"></path>
                    <path d="M29.9368809,14.0403892 C29.9368809,14.0403892 29.0748526,12.9461969 28.5113208,12.4489976 L16.1786262,12.4489976 L16.1786262,14.0403892 L29.9368809,14.0403892 Z" id="Fill-18" fill="#000000"></path>
                    <path d="M12.9295991,18.6154334 L12.9295991,20.2399912 L30.2683373,20.2399912 C30.5669811,19.7424971 30.765684,19.1791126 30.8653302,18.6154334 L12.9295991,18.6154334 Z" id="Fill-20" fill="#000000"></path>
                    <g id="Group-24" transform="translate(12.824292, 21.668632)" fill="#000000">
                        <path d="M0.105306604,0.0300854953 L0.105306604,1.621477 L11.542954,1.621477 C15.2229363,1.621477 16.2506486,0.0300854953 16.2506486,0.0300854953 L0.105306604,0.0300854953 Z" id="Fill-22"></path>
                    </g>
                    <path d="M28.3788325,10.990286 C29.0086969,10.5262529 29.5392099,9.99559257 30.0032429,9.36572818 L16.1786557,9.36572818 L16.1786557,10.990286 L28.3788325,10.990286 Z" id="Fill-25" fill="#000000"></path>
                    <path d="M31.0641657,17.1566333 C31.0641657,16.5931014 30.9646669,16.0627358 30.7658166,15.5322229 L25.8591244,15.5322229 L25.8591244,17.1566333 L31.0641657,17.1566333 Z" id="Fill-27" fill="#000000"></path>
                    <mask id="mask-2" fill="white">
                        <use xlink:href="#path-1"></use>
                    </mask>
                    <g id="Clip-30"></g>
                    <polygon id="Fill-29" fill="#000000" mask="url(#mask-2)" points="16.1786557 17.1566922 21.0188679 17.1566922 21.0188679 15.5322818 16.1786557 15.5322818"></polygon>
                    <polygon id="Fill-31" fill="#000000" mask="url(#mask-2)" points="16.1786409 6.28266509 16.1786409 6.28266509 16.1786409 7.90707547 21.0188532 7.90707547 21.0188532 6.28266509"></polygon>
                    <path d="M29.0750442,1.70754717 C27.7158166,0.613502358 26.1575914,0.11615566 24.4003685,0.11615566 L12.9295548,0.11615566 L12.9295548,1.70754717 L29.0750442,1.70754717 Z" id="Fill-32" fill="#000000" mask="url(#mask-2)"></path>
                    <polygon id="Fill-33" fill="#000000" mask="url(#mask-2)" points="3.24896816 17.1566922 8.08932783 17.1566922 8.08932783 15.5322818 3.24896816 15.5322818"></polygon>
                    <polygon id="Fill-34" fill="#000000" mask="url(#mask-2)" points="0 20.2399764 11.3051297 20.2399764 11.3051297 18.6154186 0 18.6154186"></polygon>
                    <polygon id="Fill-35" fill="#000000" mask="url(#mask-2)" points="0 23.2900943 11.3051297 23.2900943 11.3051297 21.6987028 0 21.6987028"></polygon>
                    <polygon id="Fill-36" fill="#000000" mask="url(#mask-2)" points="0 1.74071344 11.3051297 1.74071344 11.3051297 0.11615566 0 0.11615566"></polygon>
                    <polygon id="Fill-37" fill="#000000" mask="url(#mask-2)" points="0.0333136792 4.82385024 11.3051297 4.82385024 11.3051297 3.19943986 0.0333136792 3.19943986"></polygon>
                    <polygon id="Fill-38" fill="#000000" mask="url(#mask-2)" points="3.24896816 7.90713443 8.08932783 7.90713443 8.08932783 6.28272406 3.24896816 6.28272406"></polygon>
                    <polygon id="Fill-39" fill="#000000" mask="url(#mask-2)" points="3.24896816 10.9904186 8.08932783 10.9904186 8.08932783 9.36586085 3.24896816 9.36586085"></polygon>
                    <polygon id="Fill-40" fill="#000000" mask="url(#mask-2)" points="3.24896816 14.0737028 8.08932783 14.0737028 8.08932783 12.449145 3.24896816 12.449145"></polygon>
                    <polygon id="Fill-41" fill="#000000" mask="url(#mask-2)" points="50.0938974 14.0737028 54.9342571 14.0737028 54.9342571 12.449145 50.0938974 12.449145"></polygon>
                    <polygon id="Fill-42" fill="#000000" mask="url(#mask-2)" points="50.0938974 17.1566922 54.9342571 17.1566922 54.9342571 15.5322818 50.0938974 15.5322818"></polygon>
                    <polygon id="Fill-43" fill="#000000" mask="url(#mask-2)" points="50.09375 20.2399764 58.1830778 20.2399764 58.1830778 18.6154186 50.09375 18.6154186"></polygon>
                    <polygon id="Fill-44" fill="#000000" mask="url(#mask-2)" points="50.09375 23.2900943 58.1830778 23.2900943 58.1830778 21.6987028 50.09375 21.6987028"></polygon>
                    <polygon id="Fill-45" fill="#000000" mask="url(#mask-2)" points="58.1830631 4.82379127 58.1830631 3.1993809 47.9056456 3.1993809 47.3089475 4.82379127"></polygon>
                    <polygon id="Fill-46" fill="#000000" mask="url(#mask-2)" points="58.1830631 1.74065448 58.1830631 0.116096698 49.0661704 0.116096698 48.4360112 1.74065448"></polygon>
                </g>
            </g>
        </g>
    </g>
</svg>