<?xml version="1.0" encoding="UTF-8" standalone="no"?>
<svg width="59px" height="59px" viewBox="0 0 59 59" version="1.1" xmlns="http://www.w3.org/2000/svg" xmlns:xlink="http://www.w3.org/1999/xlink">
    <!-- Generator: Sketch 42 (36781) - http://www.bohemiancoding.com/sketch -->
    <title>noun_995549_cc</title>
    <desc>Created with Sketch.</desc>
    <defs></defs>
    <g id="Sep-6" stroke="none" stroke-width="1" fill="none" fill-rule="evenodd">
        <g id="3-copy" transform="translate(-284.000000, -1410.000000)" fill-rule="nonzero" fill="#F768C2">
            <g id="Group-4" transform="translate(121.000000, 1179.000000)">
                <g id="Group-24" transform="translate(0.000000, 85.000000)">
                    <g id="noun_995549_cc" transform="translate(163.520299, 146.229133)">
                        <g id="Group">
                            <g>
                                <path d="M56.2008013,0 L14.0168269,0 C12.7708868,0 11.7919338,0.979778141 11.7919338,2.13769776 L11.7919338,8.63986179 L7.34214744,4.18632479 C6.45219017,3.29561738 4.93926282,3.29561738 4.13830128,4.18632479 L0.667467949,7.66008365 C-0.222489316,8.55079105 -0.222489316,9.9759229 0.667467949,10.955701 L11.7919338,22.0895436 L11.7919338,48.9889071 L20.8694979,57.8959811 L56.1118056,57.8959811 C57.3577457,57.8959811 58.3366987,56.9162029 58.3366987,55.6692126 L58.3366987,2.04862702 C58.247703,0.890707401 57.3577457,0 56.2008013,0 Z M29.2350962,32.7780324 L27.9001603,32.5108201 L28.968109,31.4419713 L29.2350962,32.7780324 Z M28.1671474,27.7900709 L28.6121261,29.9277687 L26.2982372,32.2436079 L24.1623397,31.7982542 L28.1671474,27.7900709 Z M6.5411859,9.26335697 L25.6752671,28.4135661 L24.8743056,29.2152028 L5.74022436,10.1540644 L6.5411859,9.26335697 Z M4.76127137,11.0447718 L23.8953526,30.1949809 L22.8274038,31.2638298 L3.78231838,12.1136207 L4.76127137,11.0447718 Z M26.6542201,27.433788 L7.52013889,8.37264957 L8.58808761,7.30380069 L27.7221688,26.4540098 L26.6542201,27.433788 Z M1.64642094,8.63986179 L5.11725427,5.16610293 C5.29524573,4.98796145 5.56223291,4.89889071 5.82922009,4.89889071 C6.09620726,4.89889071 6.36319444,4.98796145 6.5411859,5.16610293 L7.69813034,6.32402255 L2.89236111,11.1338425 L1.73541667,9.9759229 C1.20144231,9.61963993 1.20144231,8.99614475 1.64642094,8.63986179 Z M20.4245192,55.6692126 L14.1058226,49.34519 L18.8225962,49.34519 C19.7125534,49.34519 20.513515,50.057756 20.513515,51.0375341 L20.513515,55.6692126 L20.4245192,55.6692126 Z M56.9127671,55.7582833 C56.9127671,56.203637 56.5567842,56.6489907 56.0228098,56.6489907 L21.7594551,56.6489907 L21.7594551,51.0375341 C21.7594551,49.4342608 20.4245192,48.0091289 18.7336004,48.0091289 L13.0378739,48.0091289 L13.0378739,23.4256047 L22.2934295,32.6889616 C22.3824252,32.7780324 22.4714209,32.8671031 22.6494124,32.8671031 L22.6494124,32.8671031 L30.926015,34.5594472 L29.2350962,26.2758683 L29.2350962,26.2758683 C29.2350962,26.1867976 29.1461004,26.0086561 29.0571047,25.9195854 L13.1268697,9.9759229 L13.1268697,2.13769776 C13.1268697,1.69234406 13.4828526,1.24699036 14.0168269,1.24699036 L56.2008013,1.24699036 C56.6457799,1.24699036 56.9127671,1.60327332 56.9127671,1.95955628 L56.9127671,55.7582833 L56.9127671,55.7582833 Z" id="Shape"></path>
                                <rect id="Rectangle-path" x="16.4903846" y="8.79432624" width="35.9542735" height="1.3360611"></rect>
                                <rect id="Rectangle-path" x="21.9871795" y="15.3900709" width="30.5255342" height="1.3360611"></rect>
                                <rect id="Rectangle-path" x="27.4839744" y="21.9858156" width="24.2068376" height="1.3360611"></rect>
                                <rect id="Rectangle-path" x="30.7820513" y="28.5815603" width="21.0029915" height="1.3360611"></rect>
                                <rect id="Rectangle-path" x="16.4903846" y="36.2765957" width="35.9542735" height="1.3360611"></rect>
                                <rect id="Rectangle-path" x="16.4903846" y="42.8723404" width="35.9542735" height="1.3360611"></rect>
                                <rect id="Rectangle-path" x="27.4839744" y="49.4680851" width="25.0967949" height="1.3360611"></rect>
                            </g>
                        </g>
                    </g>
                </g>
            </g>
        </g>
    </g>
</svg>