<?xml version="1.0" encoding="UTF-8" standalone="no"?>
<svg width="97px" height="30px" viewBox="0 0 97 30" version="1.1" xmlns="http://www.w3.org/2000/svg" xmlns:xlink="http://www.w3.org/1999/xlink">
    <!-- Generator: Sketch 42 (36781) - http://www.bohemiancoding.com/sketch -->
    <title>Shape</title>
    <desc>Created with Sketch.</desc>
    <defs></defs>
    <g id="Sep-6" stroke="none" stroke-width="1" fill="none" fill-rule="evenodd">
        <g id="3-copy" transform="translate(-96.000000, -472.000000)" fill-rule="nonzero" fill="#000000">
            <path d="M146.661291,479.537949 C146.661291,480.619128 145.790109,481.48971 144.70893,481.48971 C143.627752,481.48971 142.757169,480.619128 142.757169,479.537949 C142.757169,478.456771 143.598053,477.586188 144.70893,477.586188 C145.820708,477.616188 146.661291,478.48707 146.661291,479.537949 L146.661291,479.537949 Z M138.613052,483.472071 L138.613052,483.952661 C138.613052,483.952661 137.682471,482.750885 135.700411,482.750885 C132.427476,482.750885 129.874527,485.243535 129.874527,488.696766 C129.874527,492.120298 132.397477,494.642647 135.700411,494.642647 C137.71247,494.642647 138.613052,493.411472 138.613052,493.411472 L138.613052,493.921762 C138.613052,494.162057 138.793649,494.341753 139.033644,494.341753 L141.465695,494.341753 L141.465695,483.050279 L139.033644,483.050279 C138.793649,483.051179 138.613052,483.261775 138.613052,483.472071 L138.613052,483.472071 Z M138.613052,490.708826 C138.163061,491.369713 137.261879,491.940301 136.181001,491.940301 C134.259239,491.940301 132.787469,490.739125 132.787469,488.696766 C132.787469,486.654707 134.259239,485.453531 136.181001,485.453531 C137.23218,485.453531 138.193061,486.054119 138.613052,486.684706 L138.613052,490.708826 Z M143.267759,483.051179 L146.150402,483.051179 L146.150402,494.342653 L143.267759,494.342653 L143.267759,483.051179 L143.267759,483.051179 Z M186.330398,482.750585 C184.348338,482.750585 183.417156,483.952361 183.417156,483.952361 L183.417156,477.616188 L180.534514,477.616188 L180.534514,494.342653 L182.967165,494.342653 C183.20746,494.342653 183.387157,494.132357 183.387157,493.922062 L183.387157,493.411772 C183.387157,493.411772 184.318338,494.642947 186.299799,494.642947 C189.573333,494.642947 192.125682,492.121198 192.125682,488.697666 C192.125682,485.274135 189.573333,482.750585 186.330398,482.750585 L186.330398,482.750585 Z M185.849808,491.910002 C184.73833,491.910002 183.867747,491.340013 183.417156,490.678826 L183.417156,486.654707 C183.867747,486.054119 184.828628,485.423532 185.849808,485.423532 C187.771569,485.423532 189.24304,486.624708 189.24304,488.666767 C189.24304,490.708826 187.771869,491.910002 185.849808,491.910002 Z M179.033344,487.646187 L179.033344,494.372653 L176.150102,494.372653 L176.150102,487.97618 C176.150102,486.114718 175.549514,485.363533 173.928946,485.363533 C173.058363,485.363533 172.157181,485.814124 171.585693,486.47501 L171.585693,494.342953 L168.703651,494.342953 L168.703651,483.051479 L170.985105,483.051479 C171.2254,483.051479 171.405696,483.261775 171.405696,483.472071 L171.405696,483.952661 C172.24658,483.081478 173.357457,482.750885 174.468335,482.750885 C175.72981,482.750885 176.780989,483.111778 177.621872,483.832363 C178.642452,484.673247 179.033344,485.754125 179.033344,487.646187 L179.033344,487.646187 Z M161.70569,482.750585 C159.72423,482.750585 158.793049,483.952361 158.793049,483.952361 L158.793049,477.616188 L155.910406,477.616188 L155.910406,494.342653 L158.342458,494.342653 C158.582753,494.342653 158.763049,494.132357 158.763049,493.922062 L158.763049,493.411772 C158.763049,493.411772 159.694231,494.642947 161.675691,494.642947 C164.949226,494.642947 167.501575,492.121198 167.501575,488.697666 C167.531574,485.273835 164.979225,482.750585 161.70569,482.750585 L161.70569,482.750585 Z M161.2251,491.910002 C160.114222,491.910002 159.24364,491.340013 158.793049,490.678826 L158.793049,486.654707 C159.24364,486.054119 160.20452,485.423532 161.2251,485.423532 C163.147462,485.423532 164.618632,486.624708 164.618632,488.666767 C164.618632,490.708826 163.147462,491.910002 161.2251,491.910002 Z M153.417756,482.750585 C154.288339,482.750585 154.73893,482.901182 154.73893,482.901182 L154.73893,485.573529 C154.73893,485.573529 152.336578,484.762645 150.835408,486.474711 L150.835408,494.372353 L147.952166,494.372353 L147.952166,483.051179 L150.384817,483.051179 C150.625112,483.051179 150.804808,483.261475 150.804808,483.471771 L150.804808,483.952361 C151.345998,483.321474 152.517174,482.750585 153.417756,482.750585 L153.417756,482.750585 Z M123.478655,493.321474 C123.328658,492.961181 123.178361,492.570889 123.028364,492.240295 C122.787769,491.700006 122.547474,491.189116 122.337778,490.708826 L122.307778,490.678826 C120.23542,486.174117 118.013664,481.610008 115.671011,477.105898 L115.581013,476.925301 C115.334619,476.458052 115.094502,475.987519 114.860727,475.51383 C114.560133,474.972941 114.260139,474.402952 113.779549,473.862063 C112.818668,472.660887 111.437196,472 109.966025,472 C108.464255,472 107.113082,472.660887 106.122502,473.801764 C105.671911,474.342053 105.341318,474.912642 105.041324,475.453531 C104.806957,475.926923 104.566844,476.397448 104.321038,476.865003 L104.23074,477.045599 C101.918386,481.549709 99.6663313,486.114118 97.5942727,490.618528 L97.5639733,490.678226 C97.3539775,491.159417 97.1133823,491.669707 96.8730871,492.209696 C96.7230901,492.540289 96.5730931,492.900582 96.4230961,493.290874 C96.0325039,494.401752 95.9122063,495.452931 96.0628033,496.534409 C96.3930967,498.786764 97.8942667,500.677926 99.9666253,501.51941 C100.74751,501.850003 101.558393,502 102.398977,502 C102.639272,502 102.939266,501.970001 103.179861,501.939701 C104.171041,501.819704 105.191921,501.48971 106.183101,500.919122 C107.414276,500.228235 108.585453,499.237655 109.906626,497.796184 C111.2278,499.237655 112.428976,500.228235 113.630152,500.919122 C114.621632,501.48971 115.642212,501.819704 116.633092,501.939701 C116.873387,501.970301 117.173981,502 117.414276,502 C118.255159,502 119.095743,501.850003 119.846328,501.51941 C121.948686,500.677926 123.419856,498.756765 123.75045,496.534409 C123.988945,495.48353 123.868947,494.432951 123.478655,493.321474 L123.478655,493.321474 Z M109.935726,494.882942 C108.313958,492.840883 107.262779,490.919122 106.902787,489.297954 C106.75279,488.607068 106.72249,488.00648 106.812788,487.465891 C106.872487,486.9853 107.053084,486.564709 107.293379,486.204416 C107.863967,485.394132 108.824848,484.883242 109.936026,484.883242 C111.047504,484.883242 112.038384,485.363833 112.578973,486.204416 C112.819268,486.564709 112.999265,486.9856 113.059863,487.465891 C113.149562,488.00678 113.119562,488.637067 112.969565,489.297954 C112.608072,490.889122 111.556893,492.811184 109.935726,494.882942 Z M121.916886,496.294414 C121.70689,497.855883 120.655711,499.207656 119.184541,499.808244 C118.463955,500.108238 117.682771,500.198536 116.902487,500.108238 C116.151902,500.01794 115.400717,499.777644 114.620432,499.327653 C113.539254,498.726465 112.458375,497.796184 111.196901,496.414412 C113.178661,493.98236 114.379837,491.759705 114.830428,489.778244 C115.040724,488.847063 115.071023,488.00648 114.980425,487.225295 C114.860727,486.474711 114.590133,485.783824 114.169841,485.183236 C113.23836,483.831463 111.676591,483.051179 109.935426,483.051179 C108.194261,483.051179 106.632492,483.862063 105.701611,485.183236 C105.281319,485.783824 105.010724,486.474711 104.890727,487.225295 C104.770729,488.00648 104.800429,488.877062 105.040724,489.778244 C105.491015,491.759705 106.72219,494.01206 108.673951,496.444411 C107.442776,497.825883 106.331598,498.757065 105.25042,499.357653 C104.469535,499.808244 103.71925,500.048539 102.968665,500.138237 C102.158081,500.228535 101.376897,500.108238 100.686311,499.838243 C99.2151403,499.237655 98.1639613,497.885882 97.9539655,496.324414 C97.8639673,495.573829 97.9236661,494.823244 98.2242601,493.98236 C98.3139583,493.681766 98.4645553,493.381772 98.6145523,493.02148 C98.8248481,492.540889 99.0645433,492.029999 99.3051385,491.51971 L99.3354379,491.460011 C101.407196,486.9853 103.629252,482.420892 105.941606,477.97678 L106.031604,477.796184 C106.272199,477.346193 106.512494,476.865603 106.75249,476.415012 C106.992785,475.934421 107.262779,475.48383 107.593373,475.093238 C108.22396,474.373253 109.064543,473.98236 109.995725,473.98236 C110.926906,473.98236 111.767489,474.373253 112.398077,475.093238 C112.72867,475.48473 112.998665,475.935321 113.23896,476.415012 C113.479555,476.865603 113.71985,477.346193 113.959545,477.796184 L114.049844,477.97678 C116.326937,482.439357 118.519484,486.944571 120.626312,491.49001 L120.626312,491.52001 C120.866907,492.0012 121.076903,492.541189 121.317198,493.02238 C121.467195,493.382072 121.617492,493.682066 121.70749,493.98266 C121.947186,494.762645 122.037184,495.51383 121.916886,496.294414 L121.916886,496.294414 Z" id="Shape"></path>
        </g>
    </g>
</svg>