<?xml version="1.0" encoding="UTF-8" standalone="no"?>
<svg width="54px" height="60px" viewBox="0 0 54 60" version="1.1" xmlns="http://www.w3.org/2000/svg" xmlns:xlink="http://www.w3.org/1999/xlink">
    <!-- Generator: Sketch 42 (36781) - http://www.bohemiancoding.com/sketch -->
    <title>noun_995638_cc</title>
    <desc>Created with Sketch.</desc>
    <defs></defs>
    <g id="Sep-6" stroke="none" stroke-width="1" fill="none" fill-rule="evenodd">
        <g id="3-copy" transform="translate(-296.000000, -1264.000000)" fill-rule="nonzero" fill="#F768C2">
            <g id="Group-4" transform="translate(121.000000, 1179.000000)">
                <g id="Group-24" transform="translate(0.000000, 85.000000)">
                    <g id="noun_995638_cc" transform="translate(175.613248, 0.125659)">
                        <g id="Group">
                            <g id="Shape">
                                <path d="M46.1887821,45.6932897 L46.1887821,17.814148 L50.7275641,17.814148 L50.7275641,10.4212766 L46.1887821,10.4212766 L46.1887821,7.74915439 C46.1887821,6.41309329 45.6548077,5.16610293 44.7648504,4.18632479 C43.7858974,3.20654664 42.5399573,2.76119294 41.2050214,2.76119294 L14.5063034,2.76119294 L14.5063034,0.623495181 L9.87852564,0.623495181 L9.87852564,2.76119294 L2.66987179,2.76119294 L2.66987179,7.30380069 C1.24594017,7.57101291 0.0889957265,8.90707401 0.0889957265,10.5103473 C0.0889957265,12.0245499 1.15694444,13.360611 2.66987179,13.716894 L2.66987179,17.0125114 C1.24594017,17.2797236 0.0889957265,18.6157847 0.0889957265,20.219058 C0.0889957265,21.7332606 1.15694444,23.0693217 2.66987179,23.4256047 L2.66987179,26.721222 C1.24594017,26.9884343 0.0889957265,28.3244954 0.0889957265,29.9277687 C0.0889957265,31.4419713 1.15694444,32.7780324 2.66987179,33.1343153 L2.66987179,36.4299327 C1.24594017,36.6971449 0.0889957265,38.033206 0.0889957265,39.6364794 C0.0889957265,41.1506819 1.15694444,42.486743 2.66987179,42.843026 L2.66987179,46.1386434 C1.24594017,46.4058556 0.0889957265,47.7419167 0.0889957265,49.34519 C0.0889957265,50.8593926 1.15694444,52.1954537 2.66987179,52.5517367 L2.66987179,57.0943444 L9.87852564,57.0943444 L9.87852564,59.2320422 L14.5063034,59.2320422 L14.5063034,57.0943444 L41.2940171,57.0943444 C42.628953,57.0943444 43.8748932,56.55992 44.8538462,55.6692126 C45.8327991,54.6894344 46.2777778,53.4424441 46.2777778,52.106383 L46.2777778,51.0375341 L52.1514957,51.0375341 L46.1887821,45.6932897 Z M42.7179487,47.296563 L42.7179487,49.5233315 L39.3361111,49.5233315 L39.3361111,48.0981997 L38.0011752,48.0981997 L38.0011752,49.4342608 L34.6193376,49.4342608 L34.6193376,47.2074923 L33.2844017,47.2074923 L33.2844017,49.4342608 L29.9025641,49.4342608 L29.9025641,48.0981997 L28.4786325,48.0981997 L28.4786325,49.4342608 L25.0967949,49.4342608 L25.0967949,47.2074923 L23.761859,47.2074923 L23.761859,49.4342608 L21.0029915,49.4342608 L21.0029915,46.1386434 L23.1388889,46.1386434 L23.1388889,44.8025823 L20.9139957,44.8025823 L20.9139957,42.1304601 L22.2489316,42.1304601 L22.2489316,40.794399 L20.9139957,40.794399 L20.9139957,38.1222768 L23.1388889,38.1222768 L23.1388889,36.7862157 L20.9139957,36.7862157 L20.9139957,34.1140935 L22.2489316,34.1140935 L22.2489316,32.7780324 L20.9139957,32.7780324 L20.9139957,30.1059102 L23.1388889,30.1059102 L23.1388889,28.7698491 L20.9139957,28.7698491 L20.9139957,25.4742317 L48.5026709,49.4342608 L43.9638889,49.4342608 L43.9638889,47.2074923 L42.7179487,47.2074923 L42.7179487,47.296563 Z M49.3926282,16.4780869 L47.5237179,16.4780869 L47.5237179,13.8950355 L46.2777778,13.8950355 L46.2777778,16.4780869 L43.7858974,16.4780869 L43.7858974,14.6966721 L42.4509615,14.6966721 L42.4509615,16.4780869 L39.9590812,16.4780869 L39.9590812,13.8950355 L38.6241453,13.8950355 L38.6241453,16.4780869 L36.132265,16.4780869 L36.132265,14.6966721 L34.7083333,14.6966721 L34.7083333,16.4780869 L32.216453,16.4780869 L32.216453,13.8950355 L30.8815171,13.8950355 L30.8815171,16.4780869 L28.3896368,16.4780869 L28.3896368,14.6966721 L27.0547009,14.6966721 L27.0547009,16.4780869 L24.5628205,16.4780869 L24.5628205,13.8950355 L23.2278846,13.8950355 L23.2278846,16.4780869 L21.0029915,16.4780869 L21.0029915,11.7573377 L49.3926282,11.7573377 L49.3926282,16.4780869 Z M1.42393162,10.5994181 C1.42393162,9.79778141 1.95790598,9.08521549 2.66987179,8.81800327 L2.66987179,12.3808329 C1.95790598,12.1136207 1.42393162,11.4010547 1.42393162,10.5994181 Z M1.42393162,20.219058 C1.42393162,19.4174213 1.95790598,18.7048554 2.66987179,18.4376432 L2.66987179,22.0004728 C1.95790598,21.7332606 1.42393162,21.0206947 1.42393162,20.219058 Z M1.42393162,29.8386979 C1.42393162,29.0370613 1.95790598,28.3244954 2.66987179,28.0572831 L2.66987179,31.6201127 C1.95790598,31.3529005 1.42393162,30.6403346 1.42393162,29.8386979 Z M1.42393162,39.4583379 C1.42393162,38.6567012 1.95790598,37.9441353 2.66987179,37.6769231 L2.66987179,41.2397527 C1.95790598,40.9725405 1.42393162,40.2599745 1.42393162,39.4583379 Z M1.42393162,49.0779778 C1.42393162,48.2763412 1.95790598,47.5637752 2.66987179,47.296563 L2.66987179,50.8593926 C1.95790598,50.5921804 1.42393162,49.9686852 1.42393162,49.0779778 Z M4.00480769,55.4910711 L4.00480769,47.296563 C4.7167735,47.5637752 5.25074786,48.2763412 5.25074786,49.0779778 L6.58568376,49.0779778 C6.58568376,47.4747045 5.51773504,46.2277141 4.00480769,45.8714312 L4.00480769,37.5878523 C4.7167735,37.8550646 5.25074786,38.5676305 5.25074786,39.3692671 L6.58568376,39.3692671 C6.58568376,37.7659938 5.51773504,36.5190035 4.00480769,36.1627205 L4.00480769,27.8791417 C4.7167735,28.1463539 5.25074786,28.8589198 5.25074786,29.6605565 L6.58568376,29.6605565 C6.58568376,28.0572831 5.51773504,26.8102928 4.00480769,26.4540098 L4.00480769,18.170431 C4.7167735,18.4376432 5.25074786,19.1502091 5.25074786,19.9518458 L6.58568376,19.9518458 C6.58568376,18.3485725 5.51773504,17.1015821 4.00480769,16.7452991 L4.00480769,8.81800327 C4.7167735,9.08521549 5.25074786,9.79778141 5.25074786,10.5994181 L6.58568376,10.5994181 C6.58568376,8.99614475 5.51773504,7.74915439 4.00480769,7.39287143 L4.00480769,4.18632479 L9.87852564,4.18632479 L9.87852564,55.5801418 L4.00480769,55.5801418 L4.00480769,55.4910711 Z M13.1713675,57.6287689 L11.2134615,57.6287689 L11.2134615,56.8271322 L11.2134615,2.85026368 L11.2134615,1.95955628 L13.1713675,1.95955628 L13.1713675,2.76119294 L13.1713675,56.8271322 L13.1713675,57.6287689 Z M44.8538462,51.8391708 C44.8538462,52.8189489 44.4978632,53.7096563 43.7858974,54.4222222 C43.0739316,55.1347881 42.1839744,55.4910711 41.2050214,55.4910711 L14.5063034,55.4910711 L14.5063034,4.18632479 L41.2940171,4.18632479 C42.2729701,4.18632479 43.1629274,4.54260775 43.8748932,5.25517367 C44.586859,5.96773959 44.9428419,6.85844699 44.9428419,7.83822513 L44.9428419,10.5103473 L19.6680556,10.5103473 L19.6680556,17.814148 L44.8538462,17.814148 L44.8538462,44.5353701 L19.6680556,22.623968 L19.6680556,50.8593926 L44.9428419,50.8593926 L44.9428419,51.8391708 L44.8538462,51.8391708 Z"></path>
                                <path d="M24.740812,45.247936 L38.8911325,45.247936 L24.740812,33.0452446 L24.740812,45.247936 Z M26.0757479,35.984579 L35.2423077,44.0009456 L26.0757479,44.0009456 L26.0757479,35.984579 Z"></path>
                                <path d="M50.2825855,19.6846336 L48.146688,23.9600291 L48.146688,41.6851064 C48.146688,42.843026 49.125641,43.8228041 50.2825855,43.8228041 C51.4395299,43.8228041 52.4184829,42.843026 52.4184829,41.6851064 L52.4184829,23.9600291 L50.2825855,19.6846336 Z M50.2825855,22.7130387 L51.083547,24.3163121 L51.083547,24.9398072 L49.4816239,24.9398072 L49.4816239,24.2272413 L50.2825855,22.7130387 Z M51.083547,26.2758683 L51.083547,38.8348427 L49.4816239,38.8348427 L49.4816239,26.2758683 L51.083547,26.2758683 Z M50.2825855,42.486743 C49.8376068,42.486743 49.4816239,42.1304601 49.4816239,41.6851064 L49.4816239,40.1709038 L51.083547,40.1709038 L51.083547,41.6851064 C51.083547,42.1304601 50.7275641,42.486743 50.2825855,42.486743 Z"></path>
                            </g>
                        </g>
                    </g>
                </g>
            </g>
        </g>
    </g>
</svg>